<?xml version="1.0" encoding="UTF-8"?>
<svg id="Livello_2" data-name="Livello 2" xmlns="http://www.w3.org/2000/svg" xmlns:xlink="http://www.w3.org/1999/xlink" viewBox="0 0 82 57.82">
  <defs>
    <style>
      .cls-1 {
        letter-spacing: 0em;
      }

      .cls-2 {
        letter-spacing: -.03em;
      }

      .cls-3 {
        letter-spacing: -.05em;
      }

      .cls-4, .cls-5 {
        letter-spacing: -.02em;
      }

      .cls-6 {
        fill: url(#Sfumatura_senza_nome_14);
      }

      .cls-7 {
        letter-spacing: -.02em;
      }

      .cls-8 {
        fill: #1b8a5a;
        stroke: #1b8a5a;
      }

      .cls-8, .cls-9, .cls-5 {
        font-family: 'Inter', 'Helvetica Neue', Helvetica, Arial, sans-serif;
        font-style: italic;
        font-weight: 500;
      }

      .cls-8, .cls-5 {
        font-size: 8.72px;
        stroke-miterlimit: 10;
        stroke-width: .15px;
      }

      .cls-9 {
        font-size: 10px;
        fill: #ffffff;
      }

      .cls-5 {
        fill: #1a5dab;
        stroke: #1a5dab;
      }
    </style>
    <linearGradient id="Sfumatura_senza_nome_14" data-name="Sfumatura senza nome 14" x1=".37" y1="22.74" x2="75.01" y2="22.74" gradientUnits="userSpaceOnUse">
      <stop offset="0" stop-color="#1a5dab"/>
      <stop offset=".1" stop-color="#1a649c"/>
      <stop offset=".33" stop-color="#1a757f"/>
      <stop offset=".56" stop-color="#1a806a"/>
      <stop offset=".78" stop-color="#1a875e"/>
      <stop offset="1" stop-color="#1b8a5a"/>
    </linearGradient>
  </defs>
  <g id="Livello_1-2" data-name="Livello 1">
    <text class="cls-5" transform="translate(6.85 39.67)"><tspan x="0" y="0">EAN</tspan></text>
    <text class="cls-8" transform="translate(45.75 39.67)"><tspan class="cls-2" x="0" y="0">U</tspan><tspan class="cls-4" x="6.02" y="0">ALI</tspan><tspan class="cls-1" x="18.41" y="0">T</tspan><tspan class="cls-4" x="23.33" y="0">Y</tspan></text>
    <path class="cls-6" d="M.37,0h5.87v40.54l25.81.02.05,4.92-31.73-.02V0ZM75.01,40.54h-29.69l-6.61-6.61V.02L6.98,0l.05,4.92,25.81.02v23.11l-4.71-4.71-4.13,4.17,8.84,8.84v9.13h5.87v-3.25l3.25,3.25h8.3-.01s24.76-.01,24.76-.01v-4.93Z"/>
    <text class="cls-9" transform="translate(0 54.98)"><tspan class="cls-7" x="0" y="0">SO</tspan><tspan class="cls-3" x="13.67" y="0">L</tspan><tspan class="cls-7" x="18.73" y="0">UTIONS LAB</tspan></text>
  </g>
</svg>